<?xml version="1.0" encoding="UTF-8"?>
<svg version="1.1" xmlns="http://www.w3.org/2000/svg" viewBox="0 0 596.8001097246092 649.2000117929687" width="1193.6002194492185" height="1298.4000235859373"><!-- svg-source:excalidraw --><metadata></metadata><defs><style class="style-fonts">
      </style></defs><g stroke-linecap="round" transform="translate(437.7449850000002 88.199974) rotate(0 21.03775749999994 15.900016499999992)"><path d="M7.95 0 C13.38 0, 18.82 0, 34.13 0 C39.43 0, 42.08 2.65, 42.08 7.95 C42.08 11.26, 42.08 14.57, 42.08 23.85 C42.08 29.15, 39.43 31.8, 34.13 31.8 C24.28 31.8, 14.43 31.8, 7.95 31.8 C2.65 31.8, 0 29.15, 0 23.85 C0 19.02, 0 14.2, 0 7.95 C0 2.65, 2.65 0, 7.95 0" stroke="none" stroke-width="0" fill="#296735"></path><path d="M7.95 0 C16.37 0, 24.79 0, 34.13 0 M7.95 0 C14.93 0, 21.91 0, 34.13 0 M34.13 0 C39.43 0, 42.08 2.65, 42.08 7.95 M34.13 0 C39.43 0, 42.08 2.65, 42.08 7.95 M42.08 7.95 C42.08 11.79, 42.08 15.64, 42.08 23.85 M42.08 7.95 C42.08 11.33, 42.08 14.72, 42.08 23.85 M42.08 23.85 C42.08 29.15, 39.43 31.8, 34.13 31.8 M42.08 23.85 C42.08 29.15, 39.43 31.8, 34.13 31.8 M34.13 31.8 C25.35 31.8, 16.58 31.8, 7.95 31.8 M34.13 31.8 C24.42 31.8, 14.71 31.8, 7.95 31.8 M7.95 31.8 C2.65 31.8, 0 29.15, 0 23.85 M7.95 31.8 C2.65 31.8, 0 29.15, 0 23.85 M0 23.85 C0 17.78, 0 11.72, 0 7.95 M0 23.85 C0 19.29, 0 14.72, 0 7.95 M0 7.95 C0 2.65, 2.65 0, 7.95 0 M0 7.95 C0 2.65, 2.65 0, 7.95 0" stroke="#000000" stroke-width="4" fill="none"></path></g><g stroke-linecap="round" transform="translate(406.5653800000002 70.39998600000001) rotate(0 20.117349499999932 24.800010500000006)"><path d="M10.06 0 C15.36 0, 20.66 0, 30.18 0 C36.88 0, 40.23 3.35, 40.23 10.06 C40.23 16.72, 40.23 23.37, 40.23 39.54 C40.23 46.25, 36.88 49.6, 30.18 49.6 C25.45 49.6, 20.72 49.6, 10.06 49.6 C3.35 49.6, 0 46.25, 0 39.54 C0 32.34, 0 25.14, 0 10.06 C0 3.35, 3.35 0, 10.06 0" stroke="none" stroke-width="0" fill="#cdab00"></path><path d="M10.06 0 C16.44 0, 22.83 0, 30.18 0 M10.06 0 C17.82 0, 25.59 0, 30.18 0 M30.18 0 C36.88 0, 40.23 3.35, 40.23 10.06 M30.18 0 C36.88 0, 40.23 3.35, 40.23 10.06 M40.23 10.06 C40.23 19.09, 40.23 28.11, 40.23 39.54 M40.23 10.06 C40.23 16.8, 40.23 23.55, 40.23 39.54 M40.23 39.54 C40.23 46.25, 36.88 49.6, 30.18 49.6 M40.23 39.54 C40.23 46.25, 36.88 49.6, 30.18 49.6 M30.18 49.6 C25.76 49.6, 21.34 49.6, 10.06 49.6 M30.18 49.6 C24.98 49.6, 19.77 49.6, 10.06 49.6 M10.06 49.6 C3.35 49.6, 0 46.25, 0 39.54 M10.06 49.6 C3.35 49.6, 0 46.25, 0 39.54 M0 39.54 C0 28.48, 0 17.41, 0 10.06 M0 39.54 C0 31.56, 0 23.59, 0 10.06 M0 10.06 C0 3.35, 3.35 0, 10.06 0 M0 10.06 C0 3.35, 3.35 0, 10.06 0" stroke="#000000" stroke-width="4" fill="none"></path></g><g stroke-linecap="round" transform="translate(343.657582 45.60002199999999) rotate(0 34.37123650000001 42.59999800000001)"><path d="M17.19 0 C26.96 0, 36.72 0, 51.56 0 C63.01 0, 68.74 5.73, 68.74 17.19 C68.74 27.99, 68.74 38.79, 68.74 68.01 C68.74 79.47, 63.01 85.2, 51.56 85.2 C40.15 85.2, 28.73 85.2, 17.19 85.2 C5.73 85.2, 0 79.47, 0 68.01 C0 49.3, 0 30.59, 0 17.19 C0 5.73, 5.73 0, 17.19 0" stroke="none" stroke-width="0" fill="#840604"></path><path d="M17.19 0 C29.44 0, 41.69 0, 51.56 0 M17.19 0 C24.71 0, 32.23 0, 51.56 0 M51.56 0 C63.01 0, 68.74 5.73, 68.74 17.19 M51.56 0 C63.01 0, 68.74 5.73, 68.74 17.19 M68.74 17.19 C68.74 28.95, 68.74 40.71, 68.74 68.01 M68.74 17.19 C68.74 36.8, 68.74 56.41, 68.74 68.01 M68.74 68.01 C68.74 79.47, 63.01 85.2, 51.56 85.2 M68.74 68.01 C68.74 79.47, 63.01 85.2, 51.56 85.2 M51.56 85.2 C42.17 85.2, 32.79 85.2, 17.19 85.2 M51.56 85.2 C44.45 85.2, 37.33 85.2, 17.19 85.2 M17.19 85.2 C5.73 85.2, 0 79.47, 0 68.01 M17.19 85.2 C5.73 85.2, 0 79.47, 0 68.01 M0 68.01 C0 57.31, 0 46.61, 0 17.19 M0 68.01 C0 49.14, 0 30.27, 0 17.19 M0 17.19 C0 5.73, 5.73 0, 17.19 0 M0 17.19 C0 5.73, 5.73 0, 17.19 0" stroke="#000000" stroke-width="4" fill="none"></path></g><g stroke-linecap="round" transform="translate(111.037216 10) rotate(0 125.710192 60.399986215332035)"><path d="M30.2 0 C93.28 0, 156.36 0, 221.22 0 C241.35 0, 251.42 10.07, 251.42 30.2 C251.42 52.76, 251.42 75.31, 251.42 90.6 C251.42 110.73, 241.35 120.8, 221.22 120.8 C152.68 120.8, 84.14 120.8, 30.2 120.8 C10.07 120.8, 0 110.73, 0 90.6 C0 68.32, 0 46.05, 0 30.2 C0 10.07, 10.07 0, 30.2 0" stroke="none" stroke-width="0" fill="#000000"></path><path d="M30.2 0 C79.88 0, 129.56 0, 221.22 0 M30.2 0 C89.36 0, 148.52 0, 221.22 0 M221.22 0 C241.35 0, 251.42 10.07, 251.42 30.2 M221.22 0 C241.35 0, 251.42 10.07, 251.42 30.2 M251.42 30.2 C251.42 52.75, 251.42 75.3, 251.42 90.6 M251.42 30.2 C251.42 43.34, 251.42 56.48, 251.42 90.6 M251.42 90.6 C251.42 110.73, 241.35 120.8, 221.22 120.8 M251.42 90.6 C251.42 110.73, 241.35 120.8, 221.22 120.8 M221.22 120.8 C174.84 120.8, 128.47 120.8, 30.2 120.8 M221.22 120.8 C155.63 120.8, 90.04 120.8, 30.2 120.8 M30.2 120.8 C10.07 120.8, 0 110.73, 0 90.6 M30.2 120.8 C10.07 120.8, 0 110.73, 0 90.6 M0 90.6 C0 69.91, 0 49.21, 0 30.2 M0 90.6 C0 67.37, 0 44.14, 0 30.2 M0 30.2 C0 10.07, 10.07 0, 30.2 0 M0 30.2 C0 10.07, 10.07 0, 30.2 0" stroke="#000000" stroke-width="4" fill="none"></path></g><g stroke-linecap="round" transform="translate(208.400055 478.4000239999999) rotate(0 90 80.39999389648438)"><path d="M91 0 L180 81 L91 160.8 L0 81" stroke="none" stroke-width="0" fill="#000000" fill-rule="evenodd"></path><path d="M91 0 C118.24 24.8, 145.49 49.59, 180 81 M91 0 C119.47 25.91, 147.93 51.82, 180 81 M180 81 C154.66 103.72, 129.31 126.45, 91 160.8 M180 81 C145.87 111.6, 111.75 142.2, 91 160.8 M91 160.8 C67.77 140.43, 44.54 120.06, 0 81 M91 160.8 C62.49 135.8, 33.98 110.8, 0 81 M0 81 C35.91 49.03, 71.83 17.07, 91 0 M0 81 C25.36 58.43, 50.72 35.85, 91 0" stroke="#000000" stroke-width="2" fill="none"></path></g><g stroke-linecap="round" transform="translate(48.40005500000001 104.40002410351562) rotate(0 250 227.1999969482422)"><path d="M32 0 C149.23 0, 266.45 0, 468 0 C489.33 0, 500 10.67, 500 32 C500 134.66, 500 237.33, 500 422.4 C500 443.73, 489.33 454.4, 468 454.4 C313.24 454.4, 158.49 454.4, 32 454.4 C10.67 454.4, 0 443.73, 0 422.4 C0 289.31, 0 156.23, 0 32 C0 10.67, 10.67 0, 32 0" stroke="none" stroke-width="0" fill="#555555"></path><path d="M32 0 C146.2 0, 260.39 0, 468 0 M32 0 C119.98 0, 207.97 0, 468 0 M468 0 C489.33 0, 500 10.67, 500 32 M468 0 C489.33 0, 500 10.67, 500 32 M500 32 C500 129.96, 500 227.92, 500 422.4 M500 32 C500 129.42, 500 226.85, 500 422.4 M500 422.4 C500 443.73, 489.33 454.4, 468 454.4 M500 422.4 C500 443.73, 489.33 454.4, 468 454.4 M468 454.4 C319.3 454.4, 170.59 454.4, 32 454.4 M468 454.4 C323.3 454.4, 178.6 454.4, 32 454.4 M32 454.4 C10.67 454.4, 0 443.73, 0 422.4 M32 454.4 C10.67 454.4, 0 443.73, 0 422.4 M0 422.4 C0 301.58, 0 180.75, 0 32 M0 422.4 C0 294.31, 0 166.22, 0 32 M0 32 C0 10.67, 10.67 0, 32 0 M0 32 C0 10.67, 10.67 0, 32 0" stroke="#000000" stroke-width="2" fill="none"></path></g><g stroke-linecap="round" transform="translate(228.400055 398.800018) rotate(0 70 30)"><path d="M140 30 C140 31.31, 139.8 32.62, 139.4 33.92 C139 35.21, 138.4 36.5, 137.61 37.76 C136.83 39.03, 135.84 40.27, 134.67 41.48 C133.51 42.69, 132.14 43.87, 130.62 45 C129.1 46.13, 127.39 47.23, 125.53 48.26 C123.68 49.3, 121.65 50.29, 119.5 51.21 C117.34 52.14, 115.03 53.01, 112.61 53.8 C110.2 54.6, 107.64 55.33, 105 55.98 C102.36 56.63, 99.6 57.22, 96.79 57.72 C93.97 58.22, 91.06 58.64, 88.12 58.98 C85.18 59.32, 82.16 59.57, 79.14 59.74 C76.12 59.91, 73.05 60, 70 60 C66.95 60, 63.88 59.91, 60.86 59.74 C57.84 59.57, 54.82 59.32, 51.88 58.98 C48.94 58.64, 46.03 58.22, 43.21 57.72 C40.4 57.22, 37.64 56.63, 35 55.98 C32.36 55.33, 29.8 54.6, 27.39 53.8 C24.97 53.01, 22.66 52.14, 20.5 51.21 C18.35 50.29, 16.32 49.3, 14.47 48.26 C12.61 47.23, 10.9 46.13, 9.38 45 C7.86 43.87, 6.49 42.69, 5.33 41.48 C4.16 40.27, 3.17 39.03, 2.39 37.76 C1.6 36.5, 1 35.21, 0.6 33.92 C0.2 32.62, 0 31.31, 0 30 C0 28.69, 0.2 27.38, 0.6 26.08 C1 24.79, 1.6 23.5, 2.39 22.24 C3.17 20.97, 4.16 19.73, 5.33 18.52 C6.49 17.31, 7.86 16.13, 9.38 15 C10.9 13.87, 12.61 12.77, 14.47 11.74 C16.32 10.7, 18.35 9.71, 20.5 8.79 C22.66 7.86, 24.97 6.99, 27.39 6.2 C29.8 5.4, 32.36 4.67, 35 4.02 C37.64 3.37, 40.4 2.78, 43.21 2.28 C46.03 1.78, 48.94 1.36, 51.88 1.02 C54.82 0.68, 57.84 0.43, 60.86 0.26 C63.88 0.09, 66.95 0, 70 0 C73.05 0, 76.12 0.09, 79.14 0.26 C82.16 0.43, 85.18 0.68, 88.12 1.02 C91.06 1.36, 93.97 1.78, 96.79 2.28 C99.6 2.78, 102.36 3.37, 105 4.02 C107.64 4.67, 110.2 5.4, 112.61 6.2 C115.03 6.99, 117.34 7.86, 119.5 8.79 C121.65 9.71, 123.68 10.7, 125.53 11.74 C127.39 12.77, 129.1 13.87, 130.62 15 C132.14 16.13, 133.51 17.31, 134.67 18.52 C135.84 19.73, 136.83 20.97, 137.61 22.24 C138.4 23.5, 139 24.79, 139.4 26.08 C139.8 27.38, 139.9 29.35, 140 30 C140.1 30.65, 140.1 29.35, 140 30" stroke="none" stroke-width="0" fill="#cdab00"></path><path d="M140 30 C140 31.31, 139.8 32.62, 139.4 33.92 C139 35.21, 138.4 36.5, 137.61 37.76 C136.83 39.03, 135.84 40.27, 134.67 41.48 C133.51 42.69, 132.14 43.87, 130.62 45 C129.1 46.13, 127.39 47.23, 125.53 48.26 C123.68 49.3, 121.65 50.29, 119.5 51.21 C117.34 52.14, 115.03 53.01, 112.61 53.8 C110.2 54.6, 107.64 55.33, 105 55.98 C102.36 56.63, 99.6 57.22, 96.79 57.72 C93.97 58.22, 91.06 58.64, 88.12 58.98 C85.18 59.32, 82.16 59.57, 79.14 59.74 C76.12 59.91, 73.05 60, 70 60 C66.95 60, 63.88 59.91, 60.86 59.74 C57.84 59.57, 54.82 59.32, 51.88 58.98 C48.94 58.64, 46.03 58.22, 43.21 57.72 C40.4 57.22, 37.64 56.63, 35 55.98 C32.36 55.33, 29.8 54.6, 27.39 53.8 C24.97 53.01, 22.66 52.14, 20.5 51.21 C18.35 50.29, 16.32 49.3, 14.47 48.26 C12.61 47.23, 10.9 46.13, 9.38 45 C7.86 43.87, 6.49 42.69, 5.33 41.48 C4.16 40.27, 3.17 39.03, 2.39 37.76 C1.6 36.5, 1 35.21, 0.6 33.92 C0.2 32.62, 0 31.31, 0 30 C0 28.69, 0.2 27.38, 0.6 26.08 C1 24.79, 1.6 23.5, 2.39 22.24 C3.17 20.97, 4.16 19.73, 5.33 18.52 C6.49 17.31, 7.86 16.13, 9.38 15 C10.9 13.87, 12.61 12.77, 14.47 11.74 C16.32 10.7, 18.35 9.71, 20.5 8.79 C22.66 7.86, 24.97 6.99, 27.39 6.2 C29.8 5.4, 32.36 4.67, 35 4.02 C37.64 3.37, 40.4 2.78, 43.21 2.28 C46.03 1.78, 48.94 1.36, 51.88 1.02 C54.82 0.68, 57.84 0.43, 60.86 0.26 C63.88 0.09, 66.95 0, 70 0 C73.05 0, 76.12 0.09, 79.14 0.26 C82.16 0.43, 85.18 0.68, 88.12 1.02 C91.06 1.36, 93.97 1.78, 96.79 2.28 C99.6 2.78, 102.36 3.37, 105 4.02 C107.64 4.67, 110.2 5.4, 112.61 6.2 C115.03 6.99, 117.34 7.86, 119.5 8.79 C121.65 9.71, 123.68 10.7, 125.53 11.74 C127.39 12.77, 129.1 13.87, 130.62 15 C132.14 16.13, 133.51 17.31, 134.67 18.52 C135.84 19.73, 136.83 20.97, 137.61 22.24 C138.4 23.5, 139 24.79, 139.4 26.08 C139.8 27.38, 139.9 29.35, 140 30 C140.1 30.65, 140.1 29.35, 140 30" stroke="#000000" stroke-width="2" fill="none"></path></g><g stroke-linecap="round"><g transform="translate(294.8000794140625 400.4000851386719) rotate(0 0.399993896484375 29.199966430664062)"><path d="M0 0 C0.26 18.73, 0.51 37.45, 0.8 58.4 M0 0 C0.24 17.83, 0.49 35.65, 0.8 58.4" stroke="#000000" stroke-width="2" fill="none"></path></g></g><mask></mask><g stroke-linecap="round"><g transform="translate(332.400055 403.6000363105469) rotate(0 0.399993896484375 25.60003662109375)"><path d="M0 0 C0.21 13.72, 0.43 27.44, 0.8 51.2 M0 0 C0.24 15.57, 0.49 31.15, 0.8 51.2" stroke="#000000" stroke-width="2" fill="none"></path></g></g><mask></mask><g stroke-linecap="round" transform="translate(208.400055 458.800018) rotate(0 10 50)"><path d="M0 0 L20 0 L20 100 L0 100" stroke="none" stroke-width="0" fill="#000000"></path><path d="M0 0 C7.85 0, 15.7 0, 20 0 M0 0 C5.6 0, 11.19 0, 20 0 M20 0 C20 21.87, 20 43.75, 20 100 M20 0 C20 36.68, 20 73.37, 20 100 M20 100 C13.75 100, 7.49 100, 0 100 M20 100 C13.63 100, 7.25 100, 0 100 M0 100 C0 66.05, 0 32.1, 0 0 M0 100 C0 69.78, 0 39.56, 0 0" stroke="#000000" stroke-width="2" fill="none"></path></g><g stroke-linecap="round" transform="translate(368.400055 458.800018) rotate(0 10 50)"><path d="M0 0 L20 0 L20 100 L0 100" stroke="none" stroke-width="0" fill="#000000"></path><path d="M0 0 C7.33 0, 14.67 0, 20 0 M0 0 C5.67 0, 11.34 0, 20 0 M20 0 C20 24.5, 20 48.99, 20 100 M20 0 C20 39.25, 20 78.5, 20 100 M20 100 C14.4 100, 8.81 100, 0 100 M20 100 C15.63 100, 11.25 100, 0 100 M0 100 C0 63.32, 0 26.63, 0 0 M0 100 C0 68.73, 0 37.46, 0 0" stroke="#000000" stroke-width="2" fill="none"></path></g><g stroke-linecap="round" transform="translate(10 218.800018) rotate(0 19.200027465820312 74.00003051757812)"><path d="M9.6 0 C14.15 0, 18.7 0, 28.8 0 C35.2 0, 38.4 3.2, 38.4 9.6 C38.4 50.73, 38.4 91.86, 38.4 138.4 C38.4 144.8, 35.2 148, 28.8 148 C22.74 148, 16.69 148, 9.6 148 C3.2 148, 0 144.8, 0 138.4 C0 110.68, 0 82.95, 0 9.6 C0 3.2, 3.2 0, 9.6 0" stroke="none" stroke-width="0" fill="#555555"></path><path d="M9.6 0 C17 0, 24.39 0, 28.8 0 M9.6 0 C17.16 0, 24.72 0, 28.8 0 M28.8 0 C35.2 0, 38.4 3.2, 38.4 9.6 M28.8 0 C35.2 0, 38.4 3.2, 38.4 9.6 M38.4 9.6 C38.4 57.04, 38.4 104.48, 38.4 138.4 M38.4 9.6 C38.4 55.41, 38.4 101.22, 38.4 138.4 M38.4 138.4 C38.4 144.8, 35.2 148, 28.8 148 M38.4 138.4 C38.4 144.8, 35.2 148, 28.8 148 M28.8 148 C23.5 148, 18.2 148, 9.6 148 M28.8 148 C21.15 148, 13.49 148, 9.6 148 M9.6 148 C3.2 148, 0 144.8, 0 138.4 M9.6 148 C3.2 148, 0 144.8, 0 138.4 M0 138.4 C0 88.68, 0 38.95, 0 9.6 M0 138.4 C0 101.19, 0 63.99, 0 9.6 M0 9.6 C0 3.2, 3.2 0, 9.6 0 M0 9.6 C0 3.2, 3.2 0, 9.6 0" stroke="#000000" stroke-width="2" fill="none"></path></g><g stroke-linecap="round" transform="translate(548.4000547929686 218.80001820703123) rotate(0 19.200027465820256 74.00003051757812)"><path d="M9.6 0 C13.85 0, 18.1 0, 28.8 0 C35.2 0, 38.4 3.2, 38.4 9.6 C38.4 56.16, 38.4 102.71, 38.4 138.4 C38.4 144.8, 35.2 148, 28.8 148 C23.01 148, 17.21 148, 9.6 148 C3.2 148, 0 144.8, 0 138.4 C0 87.58, 0 36.76, 0 9.6 C0 3.2, 3.2 0, 9.6 0" stroke="none" stroke-width="0" fill="#555555"></path><path d="M9.6 0 C16.95 0, 24.29 0, 28.8 0 M9.6 0 C14.52 0, 19.44 0, 28.8 0 M28.8 0 C35.2 0, 38.4 3.2, 38.4 9.6 M28.8 0 C35.2 0, 38.4 3.2, 38.4 9.6 M38.4 9.6 C38.4 54.79, 38.4 99.99, 38.4 138.4 M38.4 9.6 C38.4 54.46, 38.4 99.32, 38.4 138.4 M38.4 138.4 C38.4 144.8, 35.2 148, 28.8 148 M38.4 138.4 C38.4 144.8, 35.2 148, 28.8 148 M28.8 148 C21.18 148, 13.57 148, 9.6 148 M28.8 148 C21.82 148, 14.85 148, 9.6 148 M9.6 148 C3.2 148, 0 144.8, 0 138.4 M9.6 148 C3.2 148, 0 144.8, 0 138.4 M0 138.4 C0 106.36, 0 74.31, 0 9.6 M0 138.4 C0 112.09, 0 85.79, 0 9.6 M0 9.6 C0 3.2, 3.2 0, 9.6 0 M0 9.6 C0 3.2, 3.2 0, 9.6 0" stroke="#000000" stroke-width="2" fill="none"></path></g><g stroke-linecap="round"><g transform="translate(258.8000794140625 405.19995086132815) rotate(0 0.399993896484375 24.000015258789062)"><path d="M0 0 C0.24 14.25, 0.47 28.5, 0.8 48 M0 0 C0.26 15.38, 0.51 30.77, 0.8 48" stroke="#000000" stroke-width="2" fill="none"></path></g></g><mask></mask><g stroke-linecap="round"><g transform="translate(228.40011603515626 428.4000546210938) rotate(0 69.99996948242188 -1.20001220703125)"><path d="M0 0 C20.51 -0.25, 41.03 -0.5, 65.6 -0.8 M0 0 C20.91 -0.25, 41.81 -0.51, 65.6 -0.8 M65.6 -0.8 C90.86 -1.34, 116.12 -1.89, 140 -2.4 M65.6 -0.8 C88.08 -1.28, 110.57 -1.77, 140 -2.4" stroke="#000000" stroke-width="2" fill="none"></path></g></g><mask></mask><g stroke-linecap="round" transform="translate(109.20010400000007 245.20001189648437) rotate(0 59.60000600000001 19.600006103515625)"><path d="M119.2 19.6 C119.2 20.53, 119 21.47, 118.59 22.39 C118.19 23.31, 117.58 24.23, 116.79 25.12 C115.99 26.01, 114.99 26.9, 113.81 27.74 C112.64 28.59, 111.27 29.41, 109.74 30.2 C108.21 30.98, 106.49 31.73, 104.64 32.44 C102.79 33.14, 100.77 33.8, 98.63 34.41 C96.49 35.02, 94.2 35.59, 91.82 36.09 C89.44 36.59, 86.93 37.04, 84.36 37.43 C81.79 37.82, 79.1 38.14, 76.39 38.41 C73.68 38.67, 70.88 38.87, 68.08 39 C65.28 39.13, 62.43 39.2, 59.6 39.2 C56.77 39.2, 53.92 39.13, 51.12 39 C48.32 38.87, 45.52 38.67, 42.81 38.41 C40.1 38.14, 37.41 37.82, 34.84 37.43 C32.27 37.04, 29.76 36.59, 27.38 36.09 C25 35.59, 22.71 35.02, 20.57 34.41 C18.43 33.8, 16.41 33.14, 14.56 32.44 C12.71 31.73, 10.99 30.98, 9.46 30.2 C7.93 29.41, 6.56 28.59, 5.39 27.74 C4.21 26.9, 3.21 26.01, 2.41 25.12 C1.62 24.23, 1.01 23.31, 0.61 22.39 C0.2 21.47, 0 20.53, 0 19.6 C0 18.67, 0.2 17.73, 0.61 16.81 C1.01 15.89, 1.62 14.97, 2.41 14.08 C3.21 13.19, 4.21 12.3, 5.39 11.46 C6.56 10.61, 7.93 9.79, 9.46 9 C10.99 8.22, 12.71 7.47, 14.56 6.76 C16.41 6.06, 18.43 5.4, 20.57 4.79 C22.71 4.18, 25 3.61, 27.38 3.11 C29.76 2.61, 32.27 2.16, 34.84 1.77 C37.41 1.38, 40.1 1.06, 42.81 0.79 C45.52 0.53, 48.32 0.33, 51.12 0.2 C53.92 0.07, 56.77 0, 59.6 0 C62.43 0, 65.28 0.07, 68.08 0.2 C70.88 0.33, 73.68 0.53, 76.39 0.79 C79.1 1.06, 81.79 1.38, 84.36 1.77 C86.93 2.16, 89.44 2.61, 91.82 3.11 C94.2 3.61, 96.49 4.18, 98.63 4.79 C100.77 5.4, 102.79 6.06, 104.64 6.76 C106.49 7.47, 108.21 8.22, 109.74 9 C111.27 9.79, 112.64 10.61, 113.81 11.46 C114.99 12.3, 115.99 13.19, 116.79 14.08 C117.58 14.97, 118.19 15.89, 118.59 16.81 C119 17.73, 119.1 19.14, 119.2 19.6 C119.3 20.06, 119.3 19.14, 119.2 19.6" stroke="none" stroke-width="0" fill="#ffffff"></path><path d="M119.2 19.6 C119.2 20.53, 119 21.47, 118.59 22.39 C118.19 23.31, 117.58 24.23, 116.79 25.12 C115.99 26.01, 114.99 26.9, 113.81 27.74 C112.64 28.59, 111.27 29.41, 109.74 30.2 C108.21 30.98, 106.49 31.73, 104.64 32.44 C102.79 33.14, 100.77 33.8, 98.63 34.41 C96.49 35.02, 94.2 35.59, 91.82 36.09 C89.44 36.59, 86.93 37.04, 84.36 37.43 C81.79 37.82, 79.1 38.14, 76.39 38.41 C73.68 38.67, 70.88 38.87, 68.08 39 C65.28 39.13, 62.43 39.2, 59.6 39.2 C56.77 39.2, 53.92 39.13, 51.12 39 C48.32 38.87, 45.52 38.67, 42.81 38.41 C40.1 38.14, 37.41 37.82, 34.84 37.43 C32.27 37.04, 29.76 36.59, 27.38 36.09 C25 35.59, 22.71 35.02, 20.57 34.41 C18.43 33.8, 16.41 33.14, 14.56 32.44 C12.71 31.73, 10.99 30.98, 9.46 30.2 C7.93 29.41, 6.56 28.59, 5.39 27.74 C4.21 26.9, 3.21 26.01, 2.41 25.12 C1.62 24.23, 1.01 23.31, 0.61 22.39 C0.2 21.47, 0 20.53, 0 19.6 C0 18.67, 0.2 17.73, 0.61 16.81 C1.01 15.89, 1.62 14.97, 2.41 14.08 C3.21 13.19, 4.21 12.3, 5.39 11.46 C6.56 10.61, 7.93 9.79, 9.46 9 C10.99 8.22, 12.71 7.47, 14.56 6.76 C16.41 6.06, 18.43 5.4, 20.57 4.79 C22.71 4.18, 25 3.61, 27.38 3.11 C29.76 2.61, 32.27 2.16, 34.84 1.77 C37.41 1.38, 40.1 1.06, 42.81 0.79 C45.52 0.53, 48.32 0.33, 51.12 0.2 C53.92 0.07, 56.77 0, 59.6 0 C62.43 0, 65.28 0.07, 68.08 0.2 C70.88 0.33, 73.68 0.53, 76.39 0.79 C79.1 1.06, 81.79 1.38, 84.36 1.77 C86.93 2.16, 89.44 2.61, 91.82 3.11 C94.2 3.61, 96.49 4.18, 98.63 4.79 C100.77 5.4, 102.79 6.06, 104.64 6.76 C106.49 7.47, 108.21 8.22, 109.74 9 C111.27 9.79, 112.64 10.61, 113.81 11.46 C114.99 12.3, 115.99 13.19, 116.79 14.08 C117.58 14.97, 118.19 15.89, 118.59 16.81 C119 17.73, 119.1 19.14, 119.2 19.6 C119.3 20.06, 119.3 19.14, 119.2 19.6" stroke="#000000" stroke-width="2" fill="none"></path></g><g stroke-linecap="round" transform="translate(368.400055 245.20001189648443) rotate(0 59.60000600000001 19.600006103515625)"><path d="M119.2 19.6 C119.2 20.53, 119 21.47, 118.59 22.39 C118.19 23.31, 117.58 24.23, 116.79 25.12 C115.99 26.01, 114.99 26.9, 113.81 27.74 C112.64 28.59, 111.27 29.41, 109.74 30.2 C108.21 30.98, 106.49 31.73, 104.64 32.44 C102.79 33.14, 100.77 33.8, 98.63 34.41 C96.49 35.02, 94.2 35.59, 91.82 36.09 C89.44 36.59, 86.93 37.04, 84.36 37.43 C81.79 37.82, 79.1 38.14, 76.39 38.41 C73.68 38.67, 70.88 38.87, 68.08 39 C65.28 39.13, 62.43 39.2, 59.6 39.2 C56.77 39.2, 53.92 39.13, 51.12 39 C48.32 38.87, 45.52 38.67, 42.81 38.41 C40.1 38.14, 37.41 37.82, 34.84 37.43 C32.27 37.04, 29.76 36.59, 27.38 36.09 C25 35.59, 22.71 35.02, 20.57 34.41 C18.43 33.8, 16.41 33.14, 14.56 32.44 C12.71 31.73, 10.99 30.98, 9.46 30.2 C7.93 29.41, 6.56 28.59, 5.39 27.74 C4.21 26.9, 3.21 26.01, 2.41 25.12 C1.62 24.23, 1.01 23.31, 0.61 22.39 C0.2 21.47, 0 20.53, 0 19.6 C0 18.67, 0.2 17.73, 0.61 16.81 C1.01 15.89, 1.62 14.97, 2.41 14.08 C3.21 13.19, 4.21 12.3, 5.39 11.46 C6.56 10.61, 7.93 9.79, 9.46 9 C10.99 8.22, 12.71 7.47, 14.56 6.76 C16.41 6.06, 18.43 5.4, 20.57 4.79 C22.71 4.18, 25 3.61, 27.38 3.11 C29.76 2.61, 32.27 2.16, 34.84 1.77 C37.41 1.38, 40.1 1.06, 42.81 0.79 C45.52 0.53, 48.32 0.33, 51.12 0.2 C53.92 0.07, 56.77 0, 59.6 0 C62.43 0, 65.28 0.07, 68.08 0.2 C70.88 0.33, 73.68 0.53, 76.39 0.79 C79.1 1.06, 81.79 1.38, 84.36 1.77 C86.93 2.16, 89.44 2.61, 91.82 3.11 C94.2 3.61, 96.49 4.18, 98.63 4.79 C100.77 5.4, 102.79 6.06, 104.64 6.76 C106.49 7.47, 108.21 8.22, 109.74 9 C111.27 9.79, 112.64 10.61, 113.81 11.46 C114.99 12.3, 115.99 13.19, 116.79 14.08 C117.58 14.97, 118.19 15.89, 118.59 16.81 C119 17.73, 119.1 19.14, 119.2 19.6 C119.3 20.06, 119.3 19.14, 119.2 19.6" stroke="none" stroke-width="0" fill="#ffffff"></path><path d="M119.2 19.6 C119.2 20.53, 119 21.47, 118.59 22.39 C118.19 23.31, 117.58 24.23, 116.79 25.12 C115.99 26.01, 114.99 26.9, 113.81 27.74 C112.64 28.59, 111.27 29.41, 109.74 30.2 C108.21 30.98, 106.49 31.73, 104.64 32.44 C102.79 33.14, 100.77 33.8, 98.63 34.41 C96.49 35.02, 94.2 35.59, 91.82 36.09 C89.44 36.59, 86.93 37.04, 84.36 37.43 C81.79 37.82, 79.1 38.14, 76.39 38.41 C73.68 38.67, 70.88 38.87, 68.08 39 C65.28 39.13, 62.43 39.2, 59.6 39.2 C56.77 39.2, 53.92 39.13, 51.12 39 C48.32 38.87, 45.52 38.67, 42.81 38.41 C40.1 38.14, 37.41 37.82, 34.84 37.43 C32.27 37.04, 29.76 36.59, 27.38 36.09 C25 35.59, 22.71 35.02, 20.57 34.41 C18.43 33.8, 16.41 33.14, 14.56 32.44 C12.71 31.73, 10.99 30.98, 9.46 30.2 C7.93 29.41, 6.56 28.59, 5.39 27.74 C4.21 26.9, 3.21 26.01, 2.41 25.12 C1.62 24.23, 1.01 23.31, 0.61 22.39 C0.2 21.47, 0 20.53, 0 19.6 C0 18.67, 0.2 17.73, 0.61 16.81 C1.01 15.89, 1.62 14.97, 2.41 14.08 C3.21 13.19, 4.21 12.3, 5.39 11.46 C6.56 10.61, 7.93 9.79, 9.46 9 C10.99 8.22, 12.71 7.47, 14.56 6.76 C16.41 6.06, 18.43 5.4, 20.57 4.79 C22.71 4.18, 25 3.61, 27.38 3.11 C29.76 2.61, 32.27 2.16, 34.84 1.77 C37.41 1.38, 40.1 1.06, 42.81 0.79 C45.52 0.53, 48.32 0.33, 51.12 0.2 C53.92 0.07, 56.77 0, 59.6 0 C62.43 0, 65.28 0.07, 68.08 0.2 C70.88 0.33, 73.68 0.53, 76.39 0.79 C79.1 1.06, 81.79 1.38, 84.36 1.77 C86.93 2.16, 89.44 2.61, 91.82 3.11 C94.2 3.61, 96.49 4.18, 98.63 4.79 C100.77 5.4, 102.79 6.06, 104.64 6.76 C106.49 7.47, 108.21 8.22, 109.74 9 C111.27 9.79, 112.64 10.61, 113.81 11.46 C114.99 12.3, 115.99 13.19, 116.79 14.08 C117.58 14.97, 118.19 15.89, 118.59 16.81 C119 17.73, 119.1 19.14, 119.2 19.6 C119.3 20.06, 119.3 19.14, 119.2 19.6" stroke="#000000" stroke-width="2" fill="none"></path></g><g stroke-linecap="round" transform="translate(153.20004320703123 245.200012) rotate(0 15.600006103515625 19.600006000000008)"><path d="M31.2 19.6 C31.2 20.73, 31.12 21.89, 30.96 23 C30.81 24.12, 30.57 25.24, 30.26 26.3 C29.95 27.37, 29.56 28.42, 29.11 29.4 C28.66 30.38, 28.13 31.33, 27.55 32.2 C26.97 33.07, 26.32 33.89, 25.63 34.61 C24.94 35.34, 24.18 36.01, 23.4 36.57 C22.62 37.14, 21.78 37.63, 20.94 38.02 C20.09 38.41, 19.2 38.71, 18.31 38.9 C17.42 39.1, 16.5 39.2, 15.6 39.2 C14.7 39.2, 13.78 39.1, 12.89 38.9 C12 38.71, 11.11 38.41, 10.26 38.02 C9.42 37.63, 8.58 37.14, 7.8 36.57 C7.02 36.01, 6.26 35.34, 5.57 34.61 C4.88 33.89, 4.23 33.07, 3.65 32.2 C3.07 31.33, 2.54 30.38, 2.09 29.4 C1.64 28.42, 1.25 27.37, 0.94 26.3 C0.63 25.24, 0.39 24.12, 0.24 23 C0.08 21.89, 0 20.73, 0 19.6 C0 18.47, 0.08 17.31, 0.24 16.2 C0.39 15.08, 0.63 13.96, 0.94 12.9 C1.25 11.83, 1.64 10.78, 2.09 9.8 C2.54 8.82, 3.07 7.87, 3.65 7 C4.23 6.13, 4.88 5.31, 5.57 4.59 C6.26 3.86, 7.02 3.19, 7.8 2.63 C8.58 2.06, 9.42 1.57, 10.26 1.18 C11.11 0.79, 12 0.49, 12.89 0.3 C13.78 0.1, 14.7 0, 15.6 0 C16.5 0, 17.42 0.1, 18.31 0.3 C19.2 0.49, 20.09 0.79, 20.94 1.18 C21.78 1.57, 22.62 2.06, 23.4 2.63 C24.18 3.19, 24.94 3.86, 25.63 4.59 C26.32 5.31, 26.97 6.13, 27.55 7 C28.13 7.87, 28.66 8.82, 29.11 9.8 C29.56 10.78, 29.95 11.83, 30.26 12.9 C30.57 13.96, 30.81 15.08, 30.96 16.2 C31.12 17.31, 31.16 19.03, 31.2 19.6 C31.24 20.17, 31.24 19.03, 31.2 19.6" stroke="none" stroke-width="0" fill="#296735"></path><path d="M31.2 19.6 C31.2 20.73, 31.12 21.89, 30.96 23 C30.81 24.12, 30.57 25.24, 30.26 26.3 C29.95 27.37, 29.56 28.42, 29.11 29.4 C28.66 30.38, 28.13 31.33, 27.55 32.2 C26.97 33.07, 26.32 33.89, 25.63 34.61 C24.94 35.34, 24.18 36.01, 23.4 36.57 C22.62 37.14, 21.78 37.63, 20.94 38.02 C20.09 38.41, 19.2 38.71, 18.31 38.9 C17.42 39.1, 16.5 39.2, 15.6 39.2 C14.7 39.2, 13.78 39.1, 12.89 38.9 C12 38.71, 11.11 38.41, 10.26 38.02 C9.42 37.63, 8.58 37.14, 7.8 36.57 C7.02 36.01, 6.26 35.34, 5.57 34.61 C4.88 33.89, 4.23 33.07, 3.65 32.2 C3.07 31.33, 2.54 30.38, 2.09 29.4 C1.64 28.42, 1.25 27.37, 0.94 26.3 C0.63 25.24, 0.39 24.12, 0.24 23 C0.08 21.89, 0 20.73, 0 19.6 C0 18.47, 0.08 17.31, 0.24 16.2 C0.39 15.08, 0.63 13.96, 0.94 12.9 C1.25 11.83, 1.64 10.78, 2.09 9.8 C2.54 8.82, 3.07 7.87, 3.65 7 C4.23 6.13, 4.88 5.31, 5.57 4.59 C6.26 3.86, 7.02 3.19, 7.8 2.63 C8.58 2.06, 9.42 1.57, 10.26 1.18 C11.11 0.79, 12 0.49, 12.89 0.3 C13.78 0.1, 14.7 0, 15.6 0 C16.5 0, 17.42 0.1, 18.31 0.3 C19.2 0.49, 20.09 0.79, 20.94 1.18 C21.78 1.57, 22.62 2.06, 23.4 2.63 C24.18 3.19, 24.94 3.86, 25.63 4.59 C26.32 5.31, 26.97 6.13, 27.55 7 C28.13 7.87, 28.66 8.82, 29.11 9.8 C29.56 10.78, 29.95 11.83, 30.26 12.9 C30.57 13.96, 30.81 15.08, 30.96 16.2 C31.12 17.31, 31.16 19.03, 31.2 19.6 C31.24 20.17, 31.24 19.03, 31.2 19.6" stroke="#000000" stroke-width="2" fill="none"></path></g><g stroke-linecap="round" transform="translate(412.40005520703124 245.20001199999993) rotate(0 15.600006103515625 19.600006000000008)"><path d="M31.2 19.6 C31.2 20.73, 31.12 21.89, 30.96 23 C30.81 24.12, 30.57 25.24, 30.26 26.3 C29.95 27.37, 29.56 28.42, 29.11 29.4 C28.66 30.38, 28.13 31.33, 27.55 32.2 C26.97 33.07, 26.32 33.89, 25.63 34.61 C24.94 35.34, 24.18 36.01, 23.4 36.57 C22.62 37.14, 21.78 37.63, 20.94 38.02 C20.09 38.41, 19.2 38.71, 18.31 38.9 C17.42 39.1, 16.5 39.2, 15.6 39.2 C14.7 39.2, 13.78 39.1, 12.89 38.9 C12 38.71, 11.11 38.41, 10.26 38.02 C9.42 37.63, 8.58 37.14, 7.8 36.57 C7.02 36.01, 6.26 35.34, 5.57 34.61 C4.88 33.89, 4.23 33.07, 3.65 32.2 C3.07 31.33, 2.54 30.38, 2.09 29.4 C1.64 28.42, 1.25 27.37, 0.94 26.3 C0.63 25.24, 0.39 24.12, 0.24 23 C0.08 21.89, 0 20.73, 0 19.6 C0 18.47, 0.08 17.31, 0.24 16.2 C0.39 15.08, 0.63 13.96, 0.94 12.9 C1.25 11.83, 1.64 10.78, 2.09 9.8 C2.54 8.82, 3.07 7.87, 3.65 7 C4.23 6.13, 4.88 5.31, 5.57 4.59 C6.26 3.86, 7.02 3.19, 7.8 2.63 C8.58 2.06, 9.42 1.57, 10.26 1.18 C11.11 0.79, 12 0.49, 12.89 0.3 C13.78 0.1, 14.7 0, 15.6 0 C16.5 0, 17.42 0.1, 18.31 0.3 C19.2 0.49, 20.09 0.79, 20.94 1.18 C21.78 1.57, 22.62 2.06, 23.4 2.63 C24.18 3.19, 24.94 3.86, 25.63 4.59 C26.32 5.31, 26.97 6.13, 27.55 7 C28.13 7.87, 28.66 8.82, 29.11 9.8 C29.56 10.78, 29.95 11.83, 30.26 12.9 C30.57 13.96, 30.81 15.08, 30.96 16.2 C31.12 17.31, 31.16 19.03, 31.2 19.6 C31.24 20.17, 31.24 19.03, 31.2 19.6" stroke="none" stroke-width="0" fill="#840604"></path><path d="M31.2 19.6 C31.2 20.73, 31.12 21.89, 30.96 23 C30.81 24.12, 30.57 25.24, 30.26 26.3 C29.95 27.37, 29.56 28.42, 29.11 29.4 C28.66 30.38, 28.13 31.33, 27.55 32.2 C26.97 33.07, 26.32 33.89, 25.63 34.61 C24.94 35.34, 24.18 36.01, 23.4 36.57 C22.62 37.14, 21.78 37.63, 20.94 38.02 C20.09 38.41, 19.2 38.71, 18.31 38.9 C17.42 39.1, 16.5 39.2, 15.6 39.2 C14.7 39.2, 13.78 39.1, 12.89 38.9 C12 38.71, 11.11 38.41, 10.26 38.02 C9.42 37.63, 8.58 37.14, 7.8 36.57 C7.02 36.01, 6.26 35.34, 5.57 34.61 C4.88 33.89, 4.23 33.07, 3.65 32.2 C3.07 31.33, 2.54 30.38, 2.09 29.4 C1.64 28.42, 1.25 27.37, 0.94 26.3 C0.63 25.24, 0.39 24.12, 0.24 23 C0.08 21.89, 0 20.73, 0 19.6 C0 18.47, 0.08 17.31, 0.24 16.2 C0.39 15.08, 0.63 13.96, 0.94 12.9 C1.25 11.83, 1.64 10.78, 2.09 9.8 C2.54 8.82, 3.07 7.87, 3.65 7 C4.23 6.13, 4.88 5.31, 5.57 4.59 C6.26 3.86, 7.02 3.19, 7.8 2.63 C8.58 2.06, 9.42 1.57, 10.26 1.18 C11.11 0.79, 12 0.49, 12.89 0.3 C13.78 0.1, 14.7 0, 15.6 0 C16.5 0, 17.42 0.1, 18.31 0.3 C19.2 0.49, 20.09 0.79, 20.94 1.18 C21.78 1.57, 22.62 2.06, 23.4 2.63 C24.18 3.19, 24.94 3.86, 25.63 4.59 C26.32 5.31, 26.97 6.13, 27.55 7 C28.13 7.87, 28.66 8.82, 29.11 9.8 C29.56 10.78, 29.95 11.83, 30.26 12.9 C30.57 13.96, 30.81 15.08, 30.96 16.2 C31.12 17.31, 31.16 19.03, 31.2 19.6 C31.24 20.17, 31.24 19.03, 31.2 19.6" stroke="#000000" stroke-width="2" fill="none"></path></g><g stroke-linecap="round" transform="translate(249.20007300000015 331.600021) rotate(0 49.19998170703127 17.600029000000006)"><path d="M8.8 0 C38.25 0, 67.7 0, 89.6 0 C95.47 0, 98.4 2.93, 98.4 8.8 C98.4 14.24, 98.4 19.68, 98.4 26.4 C98.4 32.27, 95.47 35.2, 89.6 35.2 C62.4 35.2, 35.21 35.2, 8.8 35.2 C2.93 35.2, 0 32.27, 0 26.4 C0 21.3, 0 16.21, 0 8.8 C0 2.93, 2.93 0, 8.8 0" stroke="none" stroke-width="0" fill="#555555"></path><path d="M8.8 0 C26.39 0, 43.98 0, 89.6 0 M8.8 0 C38.58 0, 68.37 0, 89.6 0 M89.6 0 C95.47 0, 98.4 2.93, 98.4 8.8 M89.6 0 C95.47 0, 98.4 2.93, 98.4 8.8 M98.4 8.8 C98.4 15.06, 98.4 21.31, 98.4 26.4 M98.4 8.8 C98.4 12.4, 98.4 15.99, 98.4 26.4 M98.4 26.4 C98.4 32.27, 95.47 35.2, 89.6 35.2 M98.4 26.4 C98.4 32.27, 95.47 35.2, 89.6 35.2 M89.6 35.2 C60.08 35.2, 30.57 35.2, 8.8 35.2 M89.6 35.2 C62.99 35.2, 36.38 35.2, 8.8 35.2 M8.8 35.2 C2.93 35.2, 0 32.27, 0 26.4 M8.8 35.2 C2.93 35.2, 0 32.27, 0 26.4 M0 26.4 C0 19.95, 0 13.49, 0 8.8 M0 26.4 C0 22.78, 0 19.16, 0 8.8 M0 8.8 C0 2.93, 2.93 0, 8.8 0 M0 8.8 C0 2.93, 2.93 0, 8.8 0" stroke="#000000" stroke-width="2" fill="none"></path></g><g stroke-linecap="round" transform="translate(258.80007900000015 339.20003100000014) rotate(0 10.399993999999992 10.00001899999998)"><path d="M20.8 10 C20.8 10.58, 20.75 11.17, 20.64 11.74 C20.54 12.31, 20.38 12.88, 20.17 13.42 C19.97 13.96, 19.71 14.5, 19.41 15 C19.11 15.5, 18.75 15.98, 18.37 16.43 C17.98 16.87, 17.55 17.29, 17.08 17.66 C16.62 18.03, 16.12 18.37, 15.6 18.66 C15.08 18.95, 14.52 19.2, 13.96 19.4 C13.39 19.59, 12.8 19.75, 12.21 19.85 C11.61 19.95, 11 20, 10.4 20 C9.8 20, 9.19 19.95, 8.59 19.85 C8 19.75, 7.41 19.59, 6.84 19.4 C6.28 19.2, 5.72 18.95, 5.2 18.66 C4.68 18.37, 4.18 18.03, 3.72 17.66 C3.25 17.29, 2.82 16.87, 2.43 16.43 C2.05 15.98, 1.69 15.5, 1.39 15 C1.09 14.5, 0.83 13.96, 0.63 13.42 C0.42 12.88, 0.26 12.31, 0.16 11.74 C0.05 11.17, 0 10.58, 0 10 C0 9.42, 0.05 8.83, 0.16 8.26 C0.26 7.69, 0.42 7.12, 0.63 6.58 C0.83 6.04, 1.09 5.5, 1.39 5 C1.69 4.5, 2.05 4.02, 2.43 3.57 C2.82 3.13, 3.25 2.71, 3.72 2.34 C4.18 1.97, 4.68 1.63, 5.2 1.34 C5.72 1.05, 6.28 0.8, 6.84 0.6 C7.41 0.41, 8 0.25, 8.59 0.15 C9.19 0.05, 9.8 0, 10.4 0 C11 0, 11.61 0.05, 12.21 0.15 C12.8 0.25, 13.39 0.41, 13.96 0.6 C14.52 0.8, 15.08 1.05, 15.6 1.34 C16.12 1.63, 16.62 1.97, 17.08 2.34 C17.55 2.71, 17.98 3.13, 18.37 3.57 C18.75 4.02, 19.11 4.5, 19.41 5 C19.71 5.5, 19.97 6.04, 20.17 6.58 C20.38 7.12, 20.54 7.69, 20.64 8.26 C20.75 8.83, 20.77 9.71, 20.8 10 C20.83 10.29, 20.83 9.71, 20.8 10" stroke="none" stroke-width="0" fill="#cccc"></path><path d="M20.8 10 C20.8 10.58, 20.75 11.17, 20.64 11.74 C20.54 12.31, 20.38 12.88, 20.17 13.42 C19.97 13.96, 19.71 14.5, 19.41 15 C19.11 15.5, 18.75 15.98, 18.37 16.43 C17.98 16.87, 17.55 17.29, 17.08 17.66 C16.62 18.03, 16.12 18.37, 15.6 18.66 C15.08 18.95, 14.52 19.2, 13.96 19.4 C13.39 19.59, 12.8 19.75, 12.21 19.85 C11.61 19.95, 11 20, 10.4 20 C9.8 20, 9.19 19.95, 8.59 19.85 C8 19.75, 7.41 19.59, 6.84 19.4 C6.28 19.2, 5.72 18.95, 5.2 18.66 C4.68 18.37, 4.18 18.03, 3.72 17.66 C3.25 17.29, 2.82 16.87, 2.43 16.43 C2.05 15.98, 1.69 15.5, 1.39 15 C1.09 14.5, 0.83 13.96, 0.63 13.42 C0.42 12.88, 0.26 12.31, 0.16 11.74 C0.05 11.17, 0 10.58, 0 10 C0 9.42, 0.05 8.83, 0.16 8.26 C0.26 7.69, 0.42 7.12, 0.63 6.58 C0.83 6.04, 1.09 5.5, 1.39 5 C1.69 4.5, 2.05 4.02, 2.43 3.57 C2.82 3.13, 3.25 2.71, 3.72 2.34 C4.18 1.97, 4.68 1.63, 5.2 1.34 C5.72 1.05, 6.28 0.8, 6.84 0.6 C7.41 0.41, 8 0.25, 8.59 0.15 C9.19 0.05, 9.8 0, 10.4 0 C11 0, 11.61 0.05, 12.21 0.15 C12.8 0.25, 13.39 0.41, 13.96 0.6 C14.52 0.8, 15.08 1.05, 15.6 1.34 C16.12 1.63, 16.62 1.97, 17.08 2.34 C17.55 2.71, 17.98 3.13, 18.37 3.57 C18.75 4.02, 19.11 4.5, 19.41 5 C19.71 5.5, 19.97 6.04, 20.17 6.58 C20.38 7.12, 20.54 7.69, 20.64 8.26 C20.75 8.83, 20.77 9.71, 20.8 10 C20.83 10.29, 20.83 9.71, 20.8 10" stroke="#000000" stroke-width="2" fill="none"></path></g><g stroke-linecap="round" transform="translate(311.600067 339.2000310000002) rotate(0 10.399993999999992 10.00001899999998)"><path d="M20.8 10 C20.8 10.58, 20.75 11.17, 20.64 11.74 C20.54 12.31, 20.38 12.88, 20.17 13.42 C19.97 13.96, 19.71 14.5, 19.41 15 C19.11 15.5, 18.75 15.98, 18.37 16.43 C17.98 16.87, 17.55 17.29, 17.08 17.66 C16.62 18.03, 16.12 18.37, 15.6 18.66 C15.08 18.95, 14.52 19.2, 13.96 19.4 C13.39 19.59, 12.8 19.75, 12.21 19.85 C11.61 19.95, 11 20, 10.4 20 C9.8 20, 9.19 19.95, 8.59 19.85 C8 19.75, 7.41 19.59, 6.84 19.4 C6.28 19.2, 5.72 18.95, 5.2 18.66 C4.68 18.37, 4.18 18.03, 3.72 17.66 C3.25 17.29, 2.82 16.87, 2.43 16.43 C2.05 15.98, 1.69 15.5, 1.39 15 C1.09 14.5, 0.83 13.96, 0.63 13.42 C0.42 12.88, 0.26 12.31, 0.16 11.74 C0.05 11.17, 0 10.58, 0 10 C0 9.42, 0.05 8.83, 0.16 8.26 C0.26 7.69, 0.42 7.12, 0.63 6.58 C0.83 6.04, 1.09 5.5, 1.39 5 C1.69 4.5, 2.05 4.02, 2.43 3.57 C2.82 3.13, 3.25 2.71, 3.72 2.34 C4.18 1.97, 4.68 1.63, 5.2 1.34 C5.72 1.05, 6.28 0.8, 6.84 0.6 C7.41 0.41, 8 0.25, 8.59 0.15 C9.19 0.05, 9.8 0, 10.4 0 C11 0, 11.61 0.05, 12.21 0.15 C12.8 0.25, 13.39 0.41, 13.96 0.6 C14.52 0.8, 15.08 1.05, 15.6 1.34 C16.12 1.63, 16.62 1.97, 17.08 2.34 C17.55 2.71, 17.98 3.13, 18.37 3.57 C18.75 4.02, 19.11 4.5, 19.41 5 C19.71 5.5, 19.97 6.04, 20.17 6.58 C20.38 7.12, 20.54 7.69, 20.64 8.26 C20.75 8.83, 20.77 9.71, 20.8 10 C20.83 10.29, 20.83 9.71, 20.8 10" stroke="none" stroke-width="0" fill="#cccccc"></path><path d="M20.8 10 C20.8 10.58, 20.75 11.17, 20.64 11.74 C20.54 12.31, 20.38 12.88, 20.17 13.42 C19.97 13.96, 19.71 14.5, 19.41 15 C19.11 15.5, 18.75 15.98, 18.37 16.43 C17.98 16.87, 17.55 17.29, 17.08 17.66 C16.62 18.03, 16.12 18.37, 15.6 18.66 C15.08 18.95, 14.52 19.2, 13.96 19.4 C13.39 19.59, 12.8 19.75, 12.21 19.85 C11.61 19.95, 11 20, 10.4 20 C9.8 20, 9.19 19.95, 8.59 19.85 C8 19.75, 7.41 19.59, 6.84 19.4 C6.28 19.2, 5.72 18.95, 5.2 18.66 C4.68 18.37, 4.18 18.03, 3.72 17.66 C3.25 17.29, 2.82 16.87, 2.43 16.43 C2.05 15.98, 1.69 15.5, 1.39 15 C1.09 14.5, 0.83 13.96, 0.63 13.42 C0.42 12.88, 0.26 12.31, 0.16 11.74 C0.05 11.17, 0 10.58, 0 10 C0 9.42, 0.05 8.83, 0.16 8.26 C0.26 7.69, 0.42 7.12, 0.63 6.58 C0.83 6.04, 1.09 5.5, 1.39 5 C1.69 4.5, 2.05 4.02, 2.43 3.57 C2.82 3.13, 3.25 2.71, 3.72 2.34 C4.18 1.97, 4.68 1.63, 5.2 1.34 C5.72 1.05, 6.28 0.8, 6.84 0.6 C7.41 0.41, 8 0.25, 8.59 0.15 C9.19 0.05, 9.8 0, 10.4 0 C11 0, 11.61 0.05, 12.21 0.15 C12.8 0.25, 13.39 0.41, 13.96 0.6 C14.52 0.8, 15.08 1.05, 15.6 1.34 C16.12 1.63, 16.62 1.97, 17.08 2.34 C17.55 2.71, 17.98 3.13, 18.37 3.57 C18.75 4.02, 19.11 4.5, 19.41 5 C19.71 5.5, 19.97 6.04, 20.17 6.58 C20.38 7.12, 20.54 7.69, 20.64 8.26 C20.75 8.83, 20.77 9.71, 20.8 10 C20.83 10.29, 20.83 9.71, 20.8 10" stroke="#000000" stroke-width="2" fill="none"></path></g><g stroke-linecap="round" transform="translate(111.23300189377397 207.391379179215) rotate(17.284885450251835 61.456891905207954 9.999992370605483)"><path d="M5 0 C33.21 0, 61.42 0, 117.91 0 C121.25 0, 122.91 1.67, 122.91 5 C122.91 8.5, 122.91 12, 122.91 15 C122.91 18.33, 121.25 20, 117.91 20 C93.75 20, 69.59 20, 5 20 C1.67 20, 0 18.33, 0 15 C0 11.3, 0 7.61, 0 5 C0 1.67, 1.67 0, 5 0" stroke="none" stroke-width="0" fill="#000000"></path><path d="M5 0 C36.89 0, 68.78 0, 117.91 0 M5 0 C43.04 0, 81.09 0, 117.91 0 M117.91 0 C121.25 0, 122.91 1.67, 122.91 5 M117.91 0 C121.25 0, 122.91 1.67, 122.91 5 M122.91 5 C122.91 8.55, 122.91 12.09, 122.91 15 M122.91 5 C122.91 7.31, 122.91 9.62, 122.91 15 M122.91 15 C122.91 18.33, 121.25 20, 117.91 20 M122.91 15 C122.91 18.33, 121.25 20, 117.91 20 M117.91 20 C86.88 20, 55.85 20, 5 20 M117.91 20 C87.28 20, 56.64 20, 5 20 M5 20 C1.67 20, 0 18.33, 0 15 M5 20 C1.67 20, 0 18.33, 0 15 M0 15 C0 12.62, 0 10.24, 0 5 M0 15 C0 12.69, 0 10.37, 0 5 M0 5 C0 1.67, 1.67 0, 5 0 M0 5 C0 1.67, 1.67 0, 5 0" stroke="#000000" stroke-width="2" fill="none"></path></g><g stroke-linecap="round" transform="translate(362.653385893774 207.391379179215) rotate(342.7151145497482 61.456891905207954 9.999992370605483)"><path d="M5 0 C45.13 0, 85.27 0, 117.91 0 C121.25 0, 122.91 1.67, 122.91 5 C122.91 8.82, 122.91 12.63, 122.91 15 C122.91 18.33, 121.25 20, 117.91 20 C90.99 20, 64.07 20, 5 20 C1.67 20, 0 18.33, 0 15 C0 12.99, 0 10.98, 0 5 C0 1.67, 1.67 0, 5 0" stroke="none" stroke-width="0" fill="#000000"></path><path d="M5 0 C28.59 0, 52.18 0, 117.91 0 M5 0 C28.22 0, 51.45 0, 117.91 0 M117.91 0 C121.25 0, 122.91 1.67, 122.91 5 M117.91 0 C121.25 0, 122.91 1.67, 122.91 5 M122.91 5 C122.91 7.68, 122.91 10.36, 122.91 15 M122.91 5 C122.91 8.51, 122.91 12.01, 122.91 15 M122.91 15 C122.91 18.33, 121.25 20, 117.91 20 M122.91 15 C122.91 18.33, 121.25 20, 117.91 20 M117.91 20 C82.42 20, 46.93 20, 5 20 M117.91 20 C80.62 20, 43.33 20, 5 20 M5 20 C1.67 20, 0 18.33, 0 15 M5 20 C1.67 20, 0 18.33, 0 15 M0 15 C0 11.36, 0 7.72, 0 5 M0 15 C0 12.34, 0 9.68, 0 5 M0 5 C0 1.67, 1.67 0, 5 0 M0 5 C0 1.67, 1.67 0, 5 0" stroke="#000000" stroke-width="2" fill="none"></path></g><g stroke-linecap="round"><g transform="translate(428.0000606210937 203.70324920703126) rotate(0 3.20001220703125 11.199996948242173)"><path d="M0 0 C1.07 3.73, 5.33 18.67, 6.4 22.4 M0 0 C1.07 3.73, 5.33 18.67, 6.4 22.4" stroke="#555555" stroke-width="4" fill="none"></path></g></g><mask></mask><g stroke-linecap="round"><g transform="translate(443.60006662109373 197.47950320703126) rotate(0 3.20001220703125 11.199996948242173)"><path d="M0 0 C1.07 3.73, 5.33 18.67, 6.4 22.4 M0 0 C1.07 3.73, 5.33 18.67, 6.4 22.4" stroke="#555555" stroke-width="4" fill="none"></path></g></g><mask></mask><g stroke-linecap="round"><g transform="translate(459.20007262109374 194.99137820703126) rotate(0 3.20001220703125 11.199996948242188)"><path d="M0 0 C1.07 3.73, 5.33 18.67, 6.4 22.4 M0 0 C1.07 3.73, 5.33 18.67, 6.4 22.4" stroke="#555555" stroke-width="4" fill="none"></path></g></g><mask></mask></svg>